<svg width="30" height="30" viewBox="0 0 30 30" fill="none" xmlns="http://www.w3.org/2000/svg">
<path d="M28.1262 15.293C28.1262 14.2138 28.0368 13.4263 27.8434 12.6096H15.269V17.4804H22.6499C22.5012 18.6909 21.6976 20.5138 19.9119 21.7387L19.8868 21.9018L23.8626 24.9202L24.1381 24.9471C26.6678 22.6575 28.1262 19.2888 28.1262 15.293" fill="#4285F4"/>
<path d="M15.2685 28.1265C18.8845 28.1265 21.9201 26.9597 24.1375 24.9473L19.9113 21.7388C18.7803 22.5118 17.2625 23.0513 15.2685 23.0513C11.7268 23.0513 8.72092 20.7618 7.6494 17.5972L7.49234 17.6103L3.35826 20.7457L3.3042 20.893C5.50655 25.1805 10.0304 28.1265 15.2685 28.1265Z" fill="#34A853"/>
<path d="M7.65021 17.5973C7.36748 16.7806 7.20385 15.9056 7.20385 15.0014C7.20385 14.0972 7.36748 13.2222 7.63533 12.4056L7.62785 12.2317L3.44195 9.04587L3.305 9.10971C2.3973 10.8889 1.87646 12.8869 1.87646 15.0014C1.87646 17.116 2.3973 19.1139 3.305 20.8931L7.65021 17.5973" fill="#FBBC05"/>
<path d="M15.2685 6.95143C17.7834 6.95143 19.4798 8.01601 20.4471 8.90565L24.2268 5.28896C21.9055 3.17439 18.8846 1.87646 15.2685 1.87646C10.0304 1.87646 5.50656 4.82228 3.3042 9.10974L7.63455 12.4056C8.72096 9.24104 11.7269 6.95143 15.2685 6.95143" fill="#EB4335"/>
</svg>
